<svg xmlns="http://www.w3.org/2000/svg" viewBox="0 0 534 534"><path fill="#dfdfdf" d="M83.165 302.998c-1.379-12.247-3.344-24.462-4.007-36.748-1.145-21.188-2.106-42.426-1.892-63.63.107-10.641 6.668-19.373 13.772-27.131 18.977-20.725 43.28-32.532 69.636-40.331 13.296-3.934 27.092-6.176 40.663-9.178a71.644 71.644 0 0 1 5.192-.968c.398.039.466.228.47.652 1.332 9.707 2.662 18.988 3.886 28.417-.105.148-.214.494-.625.573-22.414 3.294-43.758 8.867-64.02 18.164-11.554 5.3-22.396 11.715-31.41 20.9-16.684 17.001-16.05 38.32 2.84 52.678 8.872 6.745 19.12 12.16 29.479 16.374 24.412 9.93 50.317 13.619 76.439 15.745 36 2.93 71.515.675 106.061-10.667 17.5-5.747 34.287-13.063 47.749-26.152 15.035-14.618 15.58-30.9 1.987-46.952-9.462-11.172-21.524-18.712-34.582-24.864-23.376-11.012-48.322-15.611-73.74-18.344.763-1.634 1.358-2.998 2.177-4.21 5.06-7.493 12.657-11.794 20.261-16.121 2.63-1.497 5.026-3.404 7.953-5.133 2.394-.01 4.365-.01 6.336-.011 8.622 2.31 17.318 4.378 25.852 6.979 19.301 5.88 37.262 14.475 53.092 27.192 10.143 8.148 19.008 17.346 24.493 29.372.068.148.269.264.281.406.802 9.337 6.757 9.893 14.342 9.13 6.762-.679 13.648-.08 20.478-.154 20.616-.223 38.96 6.208 54.006 20.203 10.276 9.56 15.812 21.901 16.735 36.241 1.07 16.627-2.55 31.853-13.093 44.862-10.25 12.648-23.51 21.42-38.47 27.709-13.141 5.524-26.866 8.222-41.05 9.064-4.882.29-9.726 1.236-15.274 1.712-8.781-.169-8.528-.108-10.337 7.444-1.73 7.219-3.282 14.646-6.312 21.348-4.527 10.011-10.281 19.467-15.777 29.392-17.169 22.28-39.495 36.355-65.817 44.301-34.324 10.363-69.33 12.113-104.585 6.429-32.779-5.285-61.489-18.956-84.184-43.88-2.334-2.562-4.749-5.05-7.254-7.905-.712-1.337-1.204-2.41-1.893-3.335-12.442-16.712-19.793-35.57-23.606-55.918-2.102-11.215-4.169-22.437-6.252-33.655m404.907-35.864c2.463-14.791-4.34-26.378-19.265-32.653-15.37-6.462-31.395-6.448-47.58-4.652-7.646.848-9.24 3.345-7.563 12.002-.887 8.461-1.686 16.934-2.686 25.382-1.212 10.235-2.594 20.45-4.223 31.428-.546 3.088-1.095 6.175-1.637 9.263-.7 3.98.94 5.467 4.938 5.022 6.9-.768 13.846-1.135 20.734-1.983 11.237-1.383 22.255-3.598 32.219-9.448 13.073-7.677 22.156-18.268 25.063-34.36m-289.588 101.9c18.796-3.195 35.135-15.089 37.578-37.491.23-2.11 1.03-4.199 1.82-6.197 1.623-4.104 4.185-7.204 9.061-7.338 5.194-.143 7.89 3.207 9.532 7.419 1.194 3.064 1.879 6.371 2.436 9.63 2.099 12.271 8.442 21.736 19.263 27.68 15.462 8.495 32.04 9.638 48.888 5.218 10.313-2.706 17.758-9.545 20.814-19.745 2.213-7.388 3.228-15.255 3.801-22.98.636-8.573.153-8.61 7.817-11.591V297.51c-13.074-.567-25.865-1.674-38.642-1.541-17.964.187-35.992.515-53.86 2.191-26.92 2.526-53.483-3.002-80.272-2.281-17.271.464-34.543.884-52.006 1.328v16.42c7.519 2.717 7.646 2.967 7.796 10.823.067 3.492.246 6.992.589 10.467 1.827 18.504 11.383 31.173 27.251 33.77 8.878 1.454 18.167.394 28.134.348m-102.07-96.827c-1.853 29.752 1.684 58.748 12.518 86.644 4.399 11.326 8.917 22.686 18.395 31.023 2.888 2.54 6.616 5.899 9.99 3.288 2.07-1.602 2.61-6.617 2.121-9.839-1.971-12.969-4.982-25.783-6.87-38.761-1.208-8.308-1.203-16.8-1.596-25.217-.45-9.623.253-19.42-1.33-28.842-2.317-13.787-12.744-21.626-24.307-27.84-3.47-1.865-6.14-.264-7.376 3.404-.58 1.719-.879 3.532-1.545 6.14m111.463 117.335c17.606 15.965 37.822 18.828 59.871 11.642 8.183-2.668 15.693-6.89 20.576-14.168 1.533-2.284 1.665-6.408.703-9.06-.439-1.209-5.176-1.496-7.823-1.146-8.55 1.131-16.985 3.363-25.555 4.049-14.671 1.174-29.197-.233-43.439-4.4-2.107-.617-6.02.072-6.956 1.531-1.216 1.893-.52 5.195-.17 7.827.152 1.144 1.49 2.13 2.793 3.725Z"/><path fill="#bbced3" d="M83.102 303.463c2.146 10.753 4.213 21.975 6.315 33.19 3.813 20.349 11.164 39.206 23.606 55.918.689.926 1.18 1.998 1.923 3.708.861 8.666 5.876 14.332 10.825 19.832 6.165 6.852 12.81 13.272 18.883 19.878-1.28-.356-2.44-.466-3.074-1.101-9.605-9.653-19.691-18.9-28.547-29.204-10.05-11.69-16.732-25.605-22.52-39.865-.941-2.322-1.833-4.574-4.93-3.433-15.314 5.643-29.817 12.82-40.597 25.466-6.28 7.367-9.92 16.018-8.087 26.252 1.964 10.975 7.77 19.787 15.306 27.487 13.134 13.42 29.147 22.666 46.24 29.964 38.286 16.345 78.77 22.784 119.961 25.285 14.559.883 29.247.802 43.816.03 19.38-1.027 38.883-2.014 58.01-5.048 44.756-7.1 87.223-20.508 122.18-51.194 9.314-8.176 17.067-17.768 21.16-29.792 3.335-9.796 1.62-18.882-6.117-25.542-6.076-5.231-13.076-9.907-20.434-13.008-10.601-4.468-21.899-7.284-33.11-10.873-.678 2.202-.93 2.974-1.154 3.754-11.135 38.657-34.978 66.72-70.776 84.764-1.469.74-3.303.755-4.773.829 14.709-8.563 28.49-17.905 38.07-31.895 4.689-6.848 7.875-14.726 11.741-22.137 5.233-9.692 10.987-19.148 15.514-29.159 3.03-6.702 4.582-14.13 6.312-21.348 1.81-7.552 1.556-7.613 9.923-7.376-.173 2.945-.619 5.65-1.097 8.552 7.498 1.966 14.519 3.498 21.34 5.66 15.138 4.8 29.347 11.27 41.118 22.466 14.488 13.78 16.46 35.27 8.385 52.463-9.712 20.68-26.41 34.549-45.238 46.333-25.18 15.761-52.873 25.321-81.515 32.149-13.994 3.335-28.356 5.152-42.571 7.534-30.252 5.07-60.805 4.602-91.254 3.728-16.512-.474-33.11-2.83-49.37-5.914-18.286-3.468-36.51-7.834-54.262-13.405-22.463-7.048-43.787-17.184-62.526-31.628-13.606-10.487-26.38-22.138-32.019-39.355-6.098-18.622-.264-34.704 11.414-48.899 12.365-15.03 28.96-24.258 47.192-30.352 5.315-1.777 6.714-3.435 5.965-9.479-1.42-11.467-.967-23.167-1.228-35.235Z"/><path fill="#b8ced4" d="M307.994 125.744c-2.175.317-4.146.318-6.907.148-12.926-1.41-25.07-3.729-37.197-3.64-18.971.14-37.93 1.91-56.895 2.988 0 0-.068-.19-.047-.288 1.073-14.157 6.362-26.395 15.59-37.044 13.34-15.395 31.1-22.383 50.39-25.744 12.596-2.194 25.462-2.84 38.208-4.173 9.644-1.008 19.324-1.76 28.926-3.075 10.55-1.444 16.32-12.678 11.74-22.325-1.198-2.521-2.774-4.862-4.011-7.367-2.055-4.158-3.245-8.55.11-12.494 3.075-3.617 7.213-3.322 11.415-2.031 8.918 2.74 15.255 8.9 20.754 15.956 7.99 10.251 12.428 22.085 12.846 35.01.597 18.475-8.736 31.354-24.255 40.473-16.888 9.924-35.907 14.21-54.033 20.86-2.15.79-4.286 1.618-6.634 2.746Z"/><path fill="#6e4c42" d="M271 151.876c25.481 2.393 50.427 6.992 73.803 18.004 13.058 6.152 25.12 13.692 34.582 24.864 13.594 16.053 13.048 32.334-1.987 46.952-13.462 13.089-30.249 20.405-47.749 26.152-34.546 11.342-70.061 13.597-106.061 10.667-26.122-2.126-52.027-5.816-76.44-15.745-10.358-4.213-20.606-9.629-29.479-16.374-18.889-14.358-19.523-35.677-2.84-52.677 9.015-9.186 19.857-15.6 31.41-20.901 20.263-9.297 41.607-14.87 64.326-17.93a66.886 66.886 0 0 1 5.8 12.9c-20.1 1.665-39.44 4.938-57.74 12.614-12.17 5.105-23.973 10.981-32.831 21.278-7.722 8.975-6.119 18.64 4.448 23.917 11.595 5.79 23.91 7.026 36.413 3.345 9.667-2.845 12.1-7.292 10.235-17.178-1.4-7.421.61-11.593 7.841-13.671 4.338-1.247 9.436-2.27 13.617-1.183 12.186 3.169 24.1 7.394 36.087 11.313 10.398 3.4 20.562 7.757 31.173 10.204 11.106 2.561 18.14-5.24 15.392-15.606-2.34-8.83-1.222-10.637 7.862-12.456 1.456-.292 2.977-.33 4.47-.353 11.367-.173 22.103 2.833 32.5 6.99 10.198 4.078 20.141 8.795 30.32 12.925 3.007 1.22 6.423 1.868 9.67 1.946 4.789.114 6.635-3.12 4.21-7.333-1.545-2.684-3.715-5.133-6.018-7.233-11.073-10.097-24.54-15.795-38.527-20.441-19.587-6.508-39.867-9.014-60.343-10.673 1.345-4.86 2.683-9.357 4.327-13.935.713-.18 1.12-.281 1.529-.382m63.774 79.641c3.768 1.326 7.477 2.863 11.32 3.92 4.129 1.136 7.647-.974 8.894-5.103 1.545-5.115-1.623-8.385-5.246-10.754-11.639-7.61-24.457-12.089-38.422-12.602-7.694-.282-9.27 1.591-9.318 9.386-.056 9.18-2.162 12.144-10.948 14.654-2.515.719-5.224.922-7.858 1.038-13.41.59-25.814-4.004-38.379-7.676-12.58-3.676-24.963-8.285-38.418-7.366-4.653.317-8.121 2.24-10.3 6.626-1.816 3.656-1.256 7.104 1.103 9.768 3.385 3.823 7.87 6.35 13.253 4.94 8.012-2.098 15.539-1.266 23.415 1.331 17.388 5.735 35.26 9.192 53.698 9.466 12.956.192 23.392-4.354 30.668-15.158 2.194-3.258 4.91-4.33 8.424-4.022 2.465.216 4.895.839 8.114 1.552Z"/><path fill="#34210b" d="M198.053 369.095c-9.536-.013-18.825 1.047-27.703-.406-15.868-2.598-25.424-15.267-27.251-33.77-.343-3.476-.522-6.976-.589-10.468-.15-7.856-.277-8.106-7.796-10.824v-16.419c17.463-.444 34.735-.864 52.006-1.328 26.79-.72 53.352 4.807 80.272 2.281 17.868-1.676 35.896-2.004 53.86-2.191 12.777-.133 25.568.974 38.642 1.541v16.129c-7.664 2.982-7.18 3.018-7.817 11.59-.573 7.726-1.588 15.593-3.801 22.98-3.056 10.2-10.5 17.04-20.814 19.746-16.848 4.42-33.426 3.277-48.888-5.217-10.82-5.945-17.164-15.41-19.263-27.68-.557-3.26-1.242-6.567-2.436-9.631-1.642-4.212-4.338-7.562-9.532-7.42-4.876.135-7.438 3.235-9.06 7.34-.79 1.997-1.59 4.086-1.82 6.196-2.444 22.402-18.783 34.296-38.01 37.551m98.22-54.286c.17-.17.265-.376.446-1.384.143-4.155-2.358-5.46-5.988-5.59-9.207-.329-16.292 7.672-15.796 17.766.18 3.682 1.329 6.84 5.43 7.05 3.915.202 4.632-3 5.861-6.143 1.217-3.109 3.917-5.673 6.132-8.338 1.01-1.216 2.42-2.099 3.915-3.361m-139.675 3.762c-.219 2.8-.577 5.6-.62 8.403-.053 3.355 2.022 5.847 5.071 5.494 1.984-.23 4.919-2.693 5.27-4.561.953-5.067 3.12-8.363 7.861-10.628 1.55-.74 2.865-4.14 2.516-5.99-.268-1.42-3.284-3.22-5.132-3.283-7.03-.242-11.96 3.286-14.966 10.565Z"/><path fill="#6ca6ad" d="M145.018 435.99c-6.437-6.607-13.082-13.027-19.247-19.88-4.95-5.5-9.964-11.165-10.697-19.498 2.347 2.15 4.762 4.637 7.096 7.199 22.695 24.924 51.405 38.595 84.184 43.88 35.255 5.684 70.26 3.934 104.585-6.429 26.322-7.946 48.648-22.021 65.817-44.3-3.603 7.177-6.79 15.055-11.479 21.903-9.579 13.99-23.36 23.332-38.415 31.974-3.98 2.008-7.352 3.826-10.874 5.277-16.787 6.917-34.421 9.728-52.425 11.146-25.832 2.034-51.152-.148-75.812-8.248-15.58-5.118-29.725-13.054-42.733-23.024Z"/><path fill="#fff" d="M96.534 271.79c.546-2.19.846-4.002 1.425-5.721 1.236-3.668 3.905-5.269 7.376-3.404 11.563 6.214 21.99 14.053 24.307 27.84 1.583 9.421.88 19.219 1.33 28.842.393 8.416.388 16.909 1.596 25.217 1.888 12.978 4.899 25.792 6.87 38.761.49 3.222-.05 8.237-2.121 9.84-3.374 2.61-7.102-.748-9.99-3.289-9.478-8.337-13.996-19.697-18.395-31.023-10.834-27.896-14.371-56.892-12.398-87.063Z"/><path fill="#d0d9db" d="M271.064 151.536c-.472.44-.88.541-2.039.602-9.977-.115-19.213-.488-28.426-.183-9.88.327-19.74 1.292-29.608 1.978a4855.67 4855.67 0 0 1-3.993-28.269c18.961-1.503 37.92-3.272 56.892-3.411 12.127-.09 24.271 2.23 36.774 3.648-2.137 1.9-4.533 3.807-7.163 5.304-7.604 4.327-15.2 8.628-20.26 16.12-.82 1.213-1.415 2.577-2.177 4.21Z"/><path fill="#442d10" d="M207.625 389.275c-1.05-1.326-2.39-2.312-2.541-3.456-.35-2.632-1.046-5.934.17-7.827.936-1.459 4.849-2.148 6.956-1.531 14.242 4.167 28.768 5.574 43.44 4.4 8.569-.686 17.004-2.918 25.554-4.05 2.647-.35 7.384-.062 7.823 1.146.962 2.653.83 6.777-.703 9.061-4.883 7.278-12.393 11.5-20.576 14.168-22.049 7.186-42.265 4.323-60.123-11.91Z"/><path fill="#bbced3" d="M406.915 298.264c13.811-3.007 27.577-5.158 41.077-8.413 11.611-2.8 20.9-9.196 25.157-21.2 1.777-5.007 1.145-9.904.153-15.273 1.741.67 3.356 1.604 4.553 2.919 3.46 3.798 6.752 7.749 10.11 11.64-2.8 15.29-11.883 25.881-24.956 33.558-9.964 5.85-20.982 8.065-32.219 9.448-6.888.848-13.834 1.215-20.734 1.983-3.999.445-5.637-1.043-4.938-5.022.542-3.088 1.091-6.175 1.797-9.64Z"/><path fill="#6ca6ad" d="M488.018 267.535c-3.41-3.49-6.703-7.44-10.163-11.238-1.197-1.315-2.812-2.25-4.594-3.32-.358.037-.295.015-.245-.27-.337-.755-.724-1.226-1.112-1.696-7.72-7.82-17.483-9.965-27.972-10.008-9.672-.04-19.344.005-29.48.037-2.465-7.866-.871-10.363 6.775-11.211 16.185-1.796 32.21-1.81 47.58 4.652 14.926 6.275 21.728 17.862 19.211 33.054Z"/><path fill="#8c817d" d="M210.885 154.081c9.974-.834 19.834-1.8 29.714-2.126 9.213-.305 18.45.068 28.121.263-.893 4.618-2.231 9.115-3.626 14.113-.055.5-.185.758-.59.681-10.354-.259-20.305-.654-30.25-.538-5.428.063-10.846.993-16.568 1.484-.495-.1-.69-.15-.886-.2-1.84-4.239-3.68-8.477-5.824-12.95-.305-.233-.196-.58-.09-.727Z"/><path fill="#e0e0e0" d="M144.654 435.989c13.372 9.97 27.518 17.907 43.097 23.025 24.66 8.1 49.98 10.282 75.812 8.248 18.004-1.418 35.638-4.229 52.425-11.146 3.522-1.451 6.894-3.27 10.68-4.998 2.01-.432 3.844-.446 5.313-1.187 35.798-18.045 59.641-46.107 70.776-84.764.224-.78.476-1.552 1.153-3.754 11.212 3.589 22.51 6.405 33.111 10.873 7.358 3.1 14.358 7.777 20.434 13.008 7.738 6.66 9.452 15.746 6.117 25.542-4.093 12.024-11.846 21.616-21.16 29.792-34.957 30.686-77.424 44.093-122.18 51.194-19.127 3.034-38.63 4.021-58.01 5.048-14.569.772-29.257.853-43.816-.03-41.191-2.5-81.675-8.94-119.961-25.285-17.093-7.298-33.106-16.544-46.24-29.964-7.536-7.7-13.342-16.512-15.306-27.487-1.832-10.234 1.806-18.885 8.087-26.252 10.78-12.646 25.283-19.823 40.597-25.466 3.097-1.141 3.989 1.111 4.93 3.433 5.788 14.26 12.47 28.174 22.52 39.865 8.856 10.304 18.942 19.551 28.547 29.204.633.635 1.795.745 3.074 1.1M67.916 383.2c-12.968 4.108-21.397 20.011-17.874 34.431 2.036 8.334 7.62 14.275 14.1 19.4 13.877 10.971 29.545 18.747 46.368 23.772 11.872 3.545 24.177 5.705 36.377 8.02 2.073.392 4.591-1.559 6.903-2.427-1.516-2.185-2.55-5.261-4.637-6.396-7.438-4.043-15.093-7.771-22.926-10.984-14.674-6.02-28.162-13.794-38.572-25.92-10.243-11.934-11.611-20.025-2.204-30.352.776-.852 1.367-1.89 1.959-2.891 2.295-3.882 1.628-6.993-2.67-7.527-5.25-.651-10.706.35-16.824.874m335.622 51.802c9.311-.072 17.75-3.07 25.104-8.537 12.305-9.148 15.13-20.888 10.836-32.952-4.018-11.29-19.74-19.366-32.024-17.502-3.763.571-3.948 2.597-2.154 5.222.812 1.188 2.207 1.974 3.32 2.962 6.115 5.425 8.63 11.84 6.432 20.098-2.399 9.013-9.065 14.396-15.535 20.18-2.19 1.958-3.47 4.934-5.167 7.445 2.76 1.028 5.522 2.056 9.188 3.084Z"/><path fill="#b49075" d="M216.365 167.789c.63.019.826.07 1.468.482 7.323 13.192 15.373 25.045 28.032 32.962 9.99 6.248 16.63 2.738 17.1-8.963.059-1.49-.074-2.992.054-4.474.597-6.905 1.255-13.805 1.89-20.707 0 0 .13-.258.18-.395 20.531 1.158 40.811 3.664 60.398 10.172 13.986 4.646 27.454 10.344 38.527 20.44 2.303 2.1 4.473 4.55 6.018 7.234 2.425 4.213.579 7.447-4.21 7.333-3.247-.078-6.663-.727-9.67-1.946-10.179-4.13-20.122-8.847-30.32-12.925-10.397-4.157-21.133-7.163-32.5-6.99-1.493.022-3.014.061-4.47.353-9.084 1.82-10.202 3.627-7.862 12.456 2.748 10.366-4.286 18.167-15.392 15.606-10.61-2.447-20.775-6.805-31.173-10.204-11.986-3.919-23.9-8.144-36.087-11.313-4.18-1.088-9.28-.064-13.617 1.183-7.231 2.078-9.241 6.25-7.841 13.671 1.865 9.886-.568 14.333-10.235 17.178-12.503 3.68-24.818 2.445-36.413-3.345-10.567-5.277-12.17-14.942-4.448-23.917 8.858-10.297 20.66-16.173 32.83-21.278 18.3-7.676 37.64-10.949 57.74-12.613Z"/><path fill="#b48f74" d="M334.387 231.381c-2.832-.577-5.262-1.2-7.727-1.416-3.513-.307-6.23.764-8.424 4.022-7.276 10.804-17.712 15.35-30.668 15.158-18.438-.274-36.31-3.731-53.698-9.466-7.876-2.597-15.403-3.429-23.415-1.331-5.383 1.41-9.868-1.117-13.253-4.94-2.36-2.664-2.92-6.112-1.103-9.768 2.179-4.386 5.647-6.309 10.3-6.626 13.455-.919 25.839 3.69 38.418 7.366 12.565 3.672 24.97 8.265 38.38 7.676 2.633-.116 5.342-.32 7.857-1.038 8.786-2.51 10.892-5.474 10.948-14.654.048-7.795 1.624-9.668 9.318-9.386 13.965.513 26.783 4.992 38.422 12.602 3.623 2.37 6.791 5.639 5.246 10.754-1.247 4.129-4.765 6.239-8.895 5.103-3.842-1.057-7.551-2.594-11.706-4.056Z"/><path fill="#855d23" d="M296.006 315.037c-1.228 1.034-2.637 1.917-3.648 3.133-2.215 2.665-4.915 5.23-6.132 8.338-1.229 3.143-1.946 6.345-5.86 6.144-4.102-.211-5.25-3.37-5.431-7.05-.496-10.095 6.59-18.096 15.796-17.766 3.63.13 6.13 1.434 5.798 6.097-.329.691-.44.89-.523 1.104Z"/><path fill="#885f24" d="M156.728 318.186c2.875-6.894 7.807-10.422 14.836-10.18 1.848.063 4.864 1.864 5.132 3.284.35 1.85-.965 5.249-2.516 5.99-4.74 2.264-6.908 5.56-7.86 10.627-.352 1.868-3.287 4.331-5.271 4.56-3.049.354-5.124-2.138-5.072-5.493.044-2.804.402-5.602.751-8.788Z"/><path fill="#855d23" d="M296.14 314.923c-.05-.1.06-.299.307-.606.09.116-.004.321-.307.606Z"/><path fill="#bbced3" d="M471.952 251.32c.34.161.727.632 1.068 1.42-.37-.158-.695-.635-1.068-1.42Z"/><path fill="#b6a99b" d="M264.504 167.012c-.23 6.979-.888 13.879-1.485 20.784-.128 1.482.005 2.984-.055 4.474-.468 11.7-7.11 15.211-17.1 8.963-12.658-7.917-20.708-19.77-27.731-32.913 5.275-.853 10.693-1.783 16.121-1.846 9.945-.116 19.896.279 30.25.538Z"/><path fill="#fefefe" d="M68.291 383.08c5.743-.405 11.199-1.405 16.45-.754 4.297.534 4.964 3.645 2.669 7.527-.592 1.001-1.183 2.039-1.959 2.89-9.407 10.328-8.039 18.419 2.204 30.352 10.41 12.127 23.898 19.901 38.572 25.92 7.833 3.214 15.488 6.942 22.926 10.985 2.088 1.135 3.12 4.21 4.637 6.396-2.312.868-4.83 2.82-6.903 2.426-12.2-2.314-24.505-4.474-36.377-8.02-16.823-5.024-32.49-12.8-46.368-23.772-6.48-5.124-12.064-11.065-14.1-19.399-3.523-14.42 4.906-30.323 18.25-34.55ZM403.085 435.002c-3.213-1.028-5.974-2.056-8.735-3.084 1.696-2.511 2.977-5.487 5.167-7.446 6.47-5.783 13.136-11.166 15.535-20.18 2.198-8.257-.317-14.672-6.432-20.097-1.113-.988-2.508-1.774-3.32-2.962-1.794-2.625-1.609-4.65 2.154-5.222 12.284-1.864 28.006 6.213 32.024 17.502 4.294 12.064 1.47 23.804-10.836 32.952-7.355 5.467-15.793 8.465-25.557 8.537Z"/></svg>